# xmcd CD database file
#
# Track frame offsets:
#	150
#	78423
#	129963
#	139555
#	151783
#	180513
#	217023
#	259333
#	298318
#
# Disc length: 4526 seconds
#
# Revision: 0
# Processed by: cddbd v1.4PL0 Copyright (c) Steve Scherf et al.
# Submitted via: CDex 1.50beta9
#
DISCID=7e11ac09
DTITLE=Joe Harriott-John Mayer Double Quintet - Indo Jazz Fusions - Indo Jazz Suite
DYEAR=1900
DGENRE=Jazz
TTITLE0=Partita
TTITLE1=Multani
TTITLE2=Gana
TTITLE3=Acka Raga
TTITLE4=Subject
TTITLE5=Overture
TTITLE6=Contrasts
TTITLE7=Raga Megha
TTITLE8=Rage Gaud-Saranga
EXTD=
EXTT0=
EXTT1=
EXTT2=
EXTT3=
EXTT4=
EXTT5=
EXTT6=
EXTT7=
EXTT8=
PLAYORDER=
